# xmcd CD database file
#
# Track frame offsets:
#	150
#	17182
#	35739
#	51530
#	71562
#	89005
#	108330
#	128938
#	151695
#	169054
#	190487
#	205631
#	231474
#	262788
#
# Disc length: 3854 seconds
#
# Revision: 0
# Processed by: cddbd v1.5.2PL0 Copyright (c) Steve Scherf et al.
# Submitted via: CDex 1.70beta2
#
DISCID=c60f0c0e
DTITLE=BLU-SWING - TRANSIT
DYEAR=2013
DGENRE=Jazz
TTITLE0=FLY HIGH
TTITLE1=LIKE WE'RE LOVERS
TTITLE2=SUNSET
TTITLE3=FREAK THE FUNK feat. BOOTIE BROWN
TTITLE4=SPEC feat. VASKO VASSILEV and TAKUTO TANAKA
TTITLE5=ARE YOU STILL MINE
TTITLE6=CHAIN OF LIFE
TTITLE7=EASY LOVER feat. RYUTARO MAKINO
TTITLE8=LOST IN THE CLOUD
TTITLE9=AMAIUTA
TTITLE10=DAY and NIGHT
TTITLE11=FREAK THE FUNK feat. BOOTIE BROWN
TTITLE12=CHAIN OF LIFE
TTITLE13=SUNSET
EXTD=YEAR: 2013
EXTT0=
EXTT1=
EXTT2=
EXTT3=
EXTT4=
EXTT5=
EXTT6=
EXTT7=
EXTT8=
EXTT9=
EXTT10=
EXTT11=
EXTT12=
EXTT13=
PLAYORDER=
